<svg xml:space="preserve" style="enable-background:new 0 0 1080 1080" version="1.0" viewBox="0 0 1080 1080" xmlns="http://www.w3.org/2000/svg">
  <path d="M824.3 429.4C821.1 271 689 145.5 530.1 151 375 156.3 252.3 286.2 255.7 441.4c2.5 114.7 72.5 212 171.3 254.9 14-17.8 25.7-49.8 31.5-67.7 5.8-14.6 12-28.8 18.4-42.6 28.9 10.1 67.6.5 88.8-22.5l.8-.9h-.1c-25.7-11.2-61.1-5.4-84.4 12.7 8-16.5 16.4-32.4 25.2-47.7 28.4 11.4 67.5 3.6 89.7-18.4l.9-.9h-.1c-24.8-12.2-59.7-8.4-83.8 7.9 8.8-14.6 17.9-28.7 27.5-42.1 29.4 9.1 68.1-2.1 88.4-26.3l.8-1h-.1c-24-9.2-55.4-3.8-77.8 11.8.8-1.1 1.6-2.1 2.4-3.2 5.7-7.5 11.6-14.7 17.5-21.8 34.7-9.9 65.7-45.2 70.6-81.8l.2-1.5h-.1c-35.9 7.2-69.2 42.5-75.8 79.9-5.7 6.8-11.3 13.7-16.8 20.9 9-24.4 7.4-53.9-5.7-74.3l-.1-.1-.8 1c-19.8 25-22.9 65.7-7.6 92.7-9 12.7-17.7 26-26.1 39.8 5.3-27.6-3.6-59.7-23-77.8l-.1-.1-.5 1.1c-12.8 28.8-5.9 68.6 15.2 91-8.3 14.5-16.3 29.5-23.9 45 4.6-28.7-5.7-62-26.3-80l-.1-.1-.5 1.2c-11.7 30.3-2.7 71.2 20 93.1-4.9 10.6-9.7 21.5-14.3 32.5-1.1-1.1-2.5-2-4.2-2.5-5.9-1.7-14.1-4.8-23.1-10.2-6-3.6-12.3-6.5-18.9-8.6-25.6-8.4-21.9-20.8-35.3-45.5-.9-1.6-11.5-12.7-13.7-14.7-.6-.5-7.3-4.4-10.8-11.7-3.1-6.6-4.9-12.8-5.6-18.8-.9-8.1-4.2-13.4-12.1-16.1-37.7-13.1-20.9-62-19.5-68.6 1.1-5.6-3.7-17.7-5.5-24.3-.2-.8-.4-1.8-.6-3-2.7-13.1 3.4-24.3 7.9-28.8 4.5-4.6 20.2-11.9 23.5-16.2 3.2-4.2 5.8-9 9.1-13.1 4.4-5.5 17.9-16.2 36-25.9 11-5.9 12.9-21.2 17.1-26 7.2-8.1 18-8.1 26.1-15.3 4.1-3.7 10-5.5 13.7-9.4 18.7-19.2 43.8-26.9 68.6-31.6 16.7-3.1 35.3 1.7 52.8 4.7 2.6.4 5 1.1 7.4 1.7 39.2 1.3 86.4 9.5 103.4 26.1 10.6 10.4 15.8 21.7 18.4 29.5 2.8 8.7 6.7 17 11.5 24.8l10.5 17.1c6.6 10.8 8.8 23.8 6 36.1-1.6 7-2.5 14.4-.4 18.5 3.3 6.4 13.3 16.8 19.4 22.8 2.9 2.9 6.1 5.4 9.6 7.6 8.1 5.1 23.4 14.9 23.4 15.7 0 1.1 1.3 6-5.5 11.9s-19.5 15.2-19.5 15.2.7 4.3 2.5 7.7c1.8 3.4 6.2 8.5 4.9 13.1-1.3 4.6-10.7 8.3-8.1 13.4 2.7 5.1 9.3 6.7 7.4 11.3-1.9 4.6-11.2 12.6-10.3 16 .9 3.4 8.5 35.1-8.9 40.7-13.1 4.2-49.1 6.5-66.1 7.4-7.3.4-13.9 4.5-17.4 10.9-2.6 4.8-5.2 11.4-6.5 20.3-3.3 22.5-25.5 74-25.5 74s-.7 1.3-1.7 3.5c-1.9 4.7-4.7 12-4.3 14.9.3 1.9 2.9 5.7 6.7 10.2 3 3.6 8 5 12.5 3.5 114.2-38.9 195.1-148.1 192.5-275z" style="fill:#00dacc"/>
  <path d="M140 804.3h29.2l32.4 52.1 32.4-52.1h29.2v123.1h-26.9V847l-34.7 52.6h-.7l-34.3-52.1v79.9H140V804.3zm219.5 0h92.9v24.1h-66v25h58v24.1h-58v25.9h66.8v24.1h-93.8V804.3zm213.4 25h-37.5v-25h102v25H600v98.2h-27.1v-98.2zm153.4-25h27.1v123.1h-27.1V804.3zm116.3 105.2 16-19.2c11.3 9.1 22.7 15 36.8 15 11.3 0 17.8-4.4 17.8-11.6v-.4c0-6.9-4.2-10.6-24.8-15.7-25-6.2-40.8-13.4-40.8-37.6v-.4c0-22.3 17.8-37.1 43.1-37.1 18.1 0 33.1 5.6 45.7 15.7l-14.1 20.4c-11.1-7.6-21.5-12.1-32-12.1-10.6 0-15.8 4.6-15.8 10.7v.4c0 8.3 5.3 10.6 26.6 16.2 25 6.7 39 15.5 39 36.9v.4c0 24.4-18.6 38.2-45.2 38.2-18.9-.1-37.6-6.5-52.3-19.8z" class="2022_H-Brand_Stacked_BlackGreen_svg__st2"/>
</svg>
