<?xml version="1.0" encoding="UTF-8" standalone="no"?>
<!-- Generator: Adobe Illustrator 22.1.0, SVG Export Plug-In . SVG Version: 6.00 Build 0)  -->

<svg
   xmlns:dc="http://purl.org/dc/elements/1.1/"
   xmlns:cc="http://creativecommons.org/ns#"
   xmlns:rdf="http://www.w3.org/1999/02/22-rdf-syntax-ns#"
   xmlns:svg="http://www.w3.org/2000/svg"
   xmlns="http://www.w3.org/2000/svg"
   xmlns:sodipodi="http://sodipodi.sourceforge.net/DTD/sodipodi-0.dtd"
   xmlns:inkscape="http://www.inkscape.org/namespaces/inkscape"
   version="1.1"
   id="illustration"
   x="0px"
   y="0px"
   viewBox="0 0 764 690"
   style="enable-background:new 0 0 764 690;"
   xml:space="preserve"
   sodipodi:docname="illustration.svg"
   inkscape:version="0.92.4 (5da689c313, 2019-01-14)"><metadata
   id="metadata104"><rdf:RDF><cc:Work
       rdf:about=""><dc:format>image/svg+xml</dc:format><dc:type
         rdf:resource="http://purl.org/dc/dcmitype/StillImage" /></cc:Work></rdf:RDF></metadata><defs
   id="defs102" /><sodipodi:namedview
   pagecolor="#ffffff"
   bordercolor="#666666"
   borderopacity="1"
   objecttolerance="10"
   gridtolerance="10"
   guidetolerance="10"
   inkscape:pageopacity="0"
   inkscape:pageshadow="2"
   inkscape:window-width="1920"
   inkscape:window-height="1016"
   id="namedview100"
   showgrid="false"
   inkscape:zoom="0.96740406"
   inkscape:cx="391.98223"
   inkscape:cy="345"
   inkscape:window-x="0"
   inkscape:window-y="27"
   inkscape:window-maximized="1"
   inkscape:current-layer="illustration" />
<style
   type="text/css"
   id="style2">
	.st0{opacity:7.000000e-02;fill:url(#SVGID_1_);enable-background:new    ;}
	.st1{opacity:0.4;fill:url(#SVGID_2_);}
	.st2{opacity:0.4;fill:url(#SVGID_3_);}
	.st3{opacity:0.3;fill:url(#SVGID_4_);enable-background:new    ;}
	.st4{fill:#F2994A;}
	.st5{opacity:0.15;fill:#FFFFFF;enable-background:new    ;}
	.st6{opacity:0.3;fill:url(#SVGID_5_);enable-background:new    ;}
	.st7{fill:#F2C94C;}
	.st8{opacity:0.2;fill:url(#SVGID_6_);enable-background:new    ;}
	.st9{opacity:0.2;fill:url(#SVGID_7_);enable-background:new    ;}
	.st10{opacity:0.2;fill:url(#SVGID_8_);enable-background:new    ;}
	.st11{opacity:0.2;fill:url(#SVGID_9_);enable-background:new    ;}
</style>
<linearGradient
   id="SVGID_1_"
   gradientUnits="userSpaceOnUse"
   x1="568.9415"
   y1="309.1174"
   x2="305.4345"
   y2="416.3972"
   gradientTransform="matrix(1 0 0 1 0 -100)">
	<stop
   offset="0"
   style="stop-color:#FFFFFF"
   id="stop4" />
	<stop
   offset="1"
   style="stop-color:#FFFFFF;stop-opacity:0"
   id="stop6" />
</linearGradient>
<path
   class="st0"
   d="M507.3,105.6c2.1,1.2,4,4.1,4.3,6.7l46.7,386.3c0.4,3.3-1.6,4.8-4.3,3.3L299.9,355.2c-2.6-1.5-4.7-5.4-4.3-8.2  l46.8-332.3c0.3-2.3,2.1-3,4.3-1.8L507.3,105.6z"
   id="path9" />
<linearGradient
   id="SVGID_2_"
   gradientUnits="userSpaceOnUse"
   x1="413.8217"
   y1="142.9682"
   x2="243.1297"
   y2="297.6335"
   gradientTransform="matrix(1 0 0 1 0 -100)">
	<stop
   offset="0"
   style="stop-color:#FFFFFF"
   id="stop11" />
	<stop
   offset="1"
   style="stop-color:#FFFFFF;stop-opacity:0"
   id="stop13" />
</linearGradient>
<path
   class="st1"
   d="M441.6,111.1c0-40.6-23.8-87.3-53.1-104.3c-29.3-16.9-53.1,2.3-53.1,42.9l11.5,6.6v-0.1  c0-31.9,18.7-47,41.7-33.7s41.7,50,41.7,81.9v0.1L441.6,111.1z"
   id="path16" />
<linearGradient
   id="SVGID_3_"
   gradientUnits="userSpaceOnUse"
   x1="530.1515"
   y1="271.3526"
   x2="359.4596"
   y2="426.0177"
   gradientTransform="matrix(1 0 0 1 0 -100)">
	<stop
   offset="0"
   style="stop-color:#FFFFFF"
   id="stop18" />
	<stop
   offset="1"
   style="stop-color:#FFFFFF;stop-opacity:0"
   id="stop20" />
</linearGradient>
<path
   class="st2"
   d="M473.1,133.6c-0.3-2.6-2.1-5.5-4.3-6.7L308.1,34.1c-2.1-1.2-4-0.5-4.3,1.8L257,368.2c-0.4,2.8,1.6,6.7,4.3,8.2  l254.2,146.7c2.6,1.5,4.7,0,4.3-3.3L473.1,133.6z"
   id="path23" />
<linearGradient
   id="SVGID_4_"
   gradientUnits="userSpaceOnUse"
   x1="264.5885"
   y1="222.2565"
   x2="110.9385"
   y2="342.5606"
   gradientTransform="matrix(1 0 0 1 0 -100)">
	<stop
   offset="0"
   style="stop-color:#FFFFFF"
   id="stop25" />
	<stop
   offset="1"
   style="stop-color:#FFFFFF;stop-opacity:0"
   id="stop27" />
</linearGradient>
<path
   class="st3"
   d="M329.5,184.4L31.9,12.6L32,167.7l271.3,156.6l26.3,38.9L329.5,184.4z"
   id="path30" />
<path
   class="st4"
   d="M0.2,73.1V31l112.3,64.8v42.1L0.2,73.1z"
   id="path32"
   style="fill:#939393;fill-opacity:1" />
<path
   class="st5"
   d="M253,178l-65.2-37.6V154l65.2,37.6V178z"
   id="path34" />
<path
   class="st5"
   d="M253,205.2l-125.7-72.5v13.6L253,218.9V205.2z"
   id="path36" />
<path
   class="st5"
   d="M253,232.5l-152.3-87.9v13.6L253,246.1V232.5z"
   id="path38" />
<path
   class="st4"
   d="M269,201.4c0,12.8,7.6,27.5,16.9,32.9s16.9-0.6,16.9-13.4c0-12.8-7.6-27.5-16.9-32.9S269,188.6,269,201.4z"
   id="path40"
   style="fill:#606060;fill-opacity:1" />
<linearGradient
   id="SVGID_5_"
   gradientUnits="userSpaceOnUse"
   x1="492.0092"
   y1="467.2967"
   x2="530.48"
   y2="779.3278"
   gradientTransform="matrix(1 0 0 1 0 -100)">
	<stop
   offset="0"
   style="stop-color:#FFFFFF"
   id="stop42" />
	<stop
   offset="1"
   style="stop-color:#FFFFFF;stop-opacity:0"
   id="stop44" />
</linearGradient>
<path
   class="st6"
   d="M364.2,362.3L661.7,534l0.1,155.1L390.5,532.5l-26.2,8.6L364.2,362.3z"
   id="path47" />
<path
   class="st7"
   d="M575.2,561.4v-42.1l112.3,64.8v42.1L575.2,561.4z"
   id="path49"
   style="fill:#191919;fill-opacity:1" />
<path
   class="st5"
   d="M440.7,444.2l65.2,37.6v13.6l-65.2-37.6V444.2z"
   id="path51" />
<path
   class="st5"
   d="M440.7,471.5l117.7,67.9V553l-117.7-67.9V471.5z"
   id="path53" />
<path
   class="st5"
   d="M440.7,498.7L593,586.6v13.6l-152.3-87.9V498.7z"
   id="path55" />
<path
   class="st7"
   d="M424.6,449.1c0,12.8-7.6,18.8-16.9,13.4s-16.9-20.1-16.9-32.9s7.6-18.8,16.9-13.4  C417.1,421.6,424.6,436.4,424.6,449.1z"
   id="path57"
   style="fill:#999999;fill-opacity:0.99240196" />
<linearGradient
   id="SVGID_6_"
   gradientUnits="userSpaceOnUse"
   x1="130.8431"
   y1="467.0927"
   x2="177.3569"
   y2="386.5073"
   gradientTransform="matrix(1 0 0 1 0 -100)">
	<stop
   offset="0"
   style="stop-color:#FFFFFF;stop-opacity:0"
   id="stop59" />
	<stop
   offset="1"
   style="stop-color:#FFFFFF"
   id="stop61" />
</linearGradient>
<path
   class="st8"
   d="M52.2,321.7L256,439.3V331.9L52.2,214.3V321.7z"
   id="path64" />
<path
   class="st4"
   d="M214.5,341.3c0-8.9,5.2-13,11.6-9.4c6.4,3.7,11.6,13.9,11.6,22.7c0,8.9-5.2,13-11.6,9.4  C219.7,360.3,214.5,350.2,214.5,341.3z"
   id="path66"
   style="fill:#2e2e2e;fill-opacity:1" />
<path
   class="st5"
   d="M204.1,369.8l-131-75.6v-13.6l131,75.6V369.8z"
   id="path68" />
<path
   class="st5"
   d="M203.7,341.9l-59.6-34.4v-13.6l59.6,34.4L203.7,341.9z"
   id="path70" />
<linearGradient
   id="SVGID_7_"
   gradientUnits="userSpaceOnUse"
   x1="685.3426"
   y1="519.5322"
   x2="638.8431"
   y2="600.0927"
   gradientTransform="matrix(1 0 0 1 0 -100)">
	<stop
   offset="0"
   style="stop-color:#FFFFFF"
   id="stop72" />
	<stop
   offset="1"
   style="stop-color:#FFFFFF;stop-opacity:0"
   id="stop74" />
</linearGradient>
<path
   class="st9"
   d="M763.9,464.9L560.2,347.3v107.4L764,572.3L763.9,464.9z"
   id="path77" />
<path
   class="st5"
   d="M612,403.8l50,28.9v13.6l-50-28.9V403.8z"
   id="path79" />
<path
   class="st5"
   d="M612.4,430.7l107.5,62.1v13.6l-107.5-62.1V430.7z"
   id="path81" />
<path
   class="st7"
   d="M601.6,405.7c0,8.9-5.2,13-11.6,9.4c-6.4-3.7-11.6-13.9-11.6-22.7c0-8.9,5.2-13,11.6-9.4  C596.4,386.6,601.6,396.8,601.6,405.7z"
   id="path83"
   style="fill:#000000;fill-opacity:1" />
<linearGradient
   id="SVGID_8_"
   gradientUnits="userSpaceOnUse"
   x1="258.1394"
   y1="623.3876"
   x2="208.3014"
   y2="666.5376"
   gradientTransform="matrix(1 0 0 1 0 -100)">
	<stop
   offset="0"
   style="stop-color:#FFFFFF"
   id="stop85" />
	<stop
   offset="1"
   style="stop-color:#FFFFFF;stop-opacity:0"
   id="stop87" />
</linearGradient>
<path
   class="st10"
   d="M243.9,587.3c-67.6-86.8-18.7-118,0-67.2C262.7,491,311.6,578.6,243.9,587.3z"
   id="path90" />
<linearGradient
   id="SVGID_9_"
   gradientUnits="userSpaceOnUse"
   x1="641.9246"
   y1="322.3908"
   x2="589.5676"
   y2="363.7108"
   gradientTransform="matrix(1 0 0 1 0 -100)">
	<stop
   offset="0"
   style="stop-color:#FFFFFF"
   id="stop92" />
	<stop
   offset="1"
   style="stop-color:#FFFFFF;stop-opacity:0"
   id="stop94" />
</linearGradient>
<path
   class="st11"
   d="M621,183.4c6,3.4,10.8,11.8,10.8,18.7v30.5l20.2,11.6c6,3.4,10.8,11.8,10.8,18.8c0,6.9-4.8,9.7-10.8,6.3  l-20.2-11.6v30.5c0,6.9-4.8,9.7-10.8,6.3c-6-3.4-10.8-11.8-10.8-18.8v-30.5L590,233.5c-6-3.4-10.8-11.8-10.8-18.7s4.8-9.7,10.8-6.3  l20.2,11.6v-30.5C610.2,182.7,615,179.9,621,183.4z"
   id="path97" />
</svg>