<svg xmlns="http://www.w3.org/2000/svg" data-name="Layer 1" viewBox="0 0 650 512"><path fill="#dbe8ec" d="M589.288,174.56284l0-18.19116a13.07946,13.07946,0,0,0-13.07945-13.07946l-46.166,0a13.07947,13.07947,0,0,1-13.07945-13.07946l0-18.19116a13.07945,13.07945,0,0,1,13.07945-13.07945h1.45764a13.07945,13.07945,0,0,0,13.07946-13.07945l0-18.19116a13.07945,13.07945,0,0,0-13.07945-13.07945L189.593,54.59194a13.07945,13.07945,0,0,0-13.07945,13.07945l0,18.19116A13.07947,13.07947,0,0,0,189.593,98.942h0a13.07944,13.07944,0,0,1,13.07944,13.07945v18.19117A13.07945,13.07945,0,0,1,189.593,143.29207l-50.57941,0a13.07944,13.07944,0,0,0-13.07945,13.07944l0,18.19117a13.07945,13.07945,0,0,0,13.07945,13.07945l19.84658,0a13.07945,13.07945,0,0,1,13.07945,13.07945l0,18.19125a13.07945,13.07945,0,0,1-13.07945,13.07945h-.048a13.07945,13.07945,0,0,0-13.07946,13.07945l0,18.19107a13.07945,13.07945,0,0,0,13.07945,13.07946h2.87139A13.07944,13.07944,0,0,1,174.763,289.42172V307.613a13.07945,13.07945,0,0,1-13.07946,13.07945l-47.12451,0a13.07944,13.07944,0,0,0-13.07945,13.07944l0,18.19117a13.07945,13.07945,0,0,0,13.07945,13.07945l423.963.00016a13.07944,13.07944,0,0,0,13.07945-13.07944l0-18.19117a13.07945,13.07945,0,0,0-13.07945-13.07945l-11.34052,0a13.07944,13.07944,0,0,1-13.07945-13.07945V289.42185a13.07947,13.07947,0,0,1,13.07946-13.07945l26.73986,0A13.07944,13.07944,0,0,0,567.00088,263.263l0-18.19107a13.07946,13.07946,0,0,0-13.07945-13.07946h-8.11162A13.07946,13.07946,0,0,1,532.73037,218.913l0-18.19124a13.07944,13.07944,0,0,1,13.07945-13.07945l30.39868,0A13.07945,13.07945,0,0,0,589.288,174.56284Z"/><path fill="#e06714" d="M319.00792,423.59751q-.64332-2.33227-1.362-4.92585l-4.68245-3.38137,1.39993-1.93864,2.25919,1.63143c-.725-2.61022-1.49281-5.36847-2.29529-8.24629l-7.37028-6.21237,1.54112-1.82835,4.688,3.95153c-5.878-21.04934-13.27181-47.31288-19.15464-68.16755a13.39348,13.39348,0,0,0-3.9018-3.62443l.99485-2.17456a8.05609,8.05609,0,0,1,1.54234.96234c-2.9007-10.27906-5.33568-18.8954-6.89007-24.393a49.80484,49.80484,0,0,0-6.35195-12.14335l.94815-.7285.94771-.729a45.58755,45.58755,0,0,1,3.95073,6.46491l.20307-2.82786,2.38507.17129-.47935,6.675c1.57525,5.57,4.65453,16.46331,8.40958,29.77287.64778-2.31561,1.32762-4.599,1.37646-4.76286l2.29176.68321c-.0198.06606-1.89484,6.3632-2.38487,8.62923,1.12476,3.98811,2.29824,8.15093,3.5004,12.41814a37.99266,37.99266,0,0,1,10.85386.10739l-.3981,2.35808a36.60193,36.60193,0,0,0-9.80223-.14543c4.61127,16.37187,9.58612,34.07361,13.829,49.26029,3.3288.797,8.66964,4.39045,9.31746,4.832l-1.34685,1.97586a45.66885,45.66885,0,0,0-7.19935-4.04609c3.77254,13.515,5.99162,21.75147,7.61739,27.821l-2.30985.61883c-.60364-2.25364-.52035-2.21929-1.49186-5.75174-1.52713.40335-4.21593,1.14335-5.60078,1.70309l-.89573-2.2169A60.94932,60.94932,0,0,1,319.00792,423.59751Z"/><path fill="#f9ae2b" d="M314.87469,412.78722c-.26889-2.03745-2.58829-3.5573-5.93782-5.75218a28.04667,28.04667,0,0,0-14.22515-4.70137,26.41353,26.41353,0,0,0-9.73747,1.60753c-3.77443,1.18344-9.6655,3.03053-11.409,7.90435a4.24627,4.24627,0,0,0-.3989,2.61188c1.12548,4.73461,12.96668,8.41063,22.37812,8.0459C305.1538,422.13093,315.4861,417.41987,314.87469,412.78722Z"/><path fill="#e06714" d="M313.34877,412.06419a13.13651,13.13651,0,0,0-4.64169-2.06742,18.15955,18.15955,0,0,0-2.44073-.45839,10.49024,10.49024,0,0,0-2.47133-.06946c-1.65821.15491-3.303.704-4.92351.824a20.69111,20.69111,0,0,1-2.43551.00523c-.81245-.04109-1.63129-.19419-2.45243-.30786-.82111-.11868-1.64757-.25662-2.47277-.32408a21.02652,21.02652,0,0,0-2.468-.0557,28.86846,28.86846,0,0,0-4.91216.32952,30.40717,30.40717,0,0,0-4.77183,1.25667,24.28254,24.28254,0,0,0-4.53819,2.18306l.07738.36361a28.04533,28.04533,0,0,0,4.96734.34682,47.51615,47.51615,0,0,0,4.79641-.21561c1.58162-.14116,3.13564-.49755,4.70649-.76545a40.72517,40.72517,0,0,0,4.71388-1.08592,13.95,13.95,0,0,1,4.78936-.53118,35.16861,35.16861,0,0,1,4.75327,1.07292,23.654,23.654,0,0,0,4.73162.30553,28.81,28.81,0,0,0,4.89734-.44693Z"/><path fill="#f9ae2b" d="M298.50543,328.86011c-2.39349-.784-3.4813-3.5599-5.05224-7.56863a25.237,25.237,0,0,1-1.04344-15.87733,27.09192,27.09192,0,0,1,5.16447-9.67c2.68445-3.60912,6.87428-9.24217,13.38568-9.8347a6.23776,6.23776,0,0,1,3.31314.23615c5.39715,2.33963,5.97645,15.49716,2.43332,25.13865C313.08871,321.1285,303.94764,330.64284,298.50543,328.86011Z"/><path fill="#e06714" d="M298.54741,327.0994a41.7266,41.7266,0,0,0,1.84388-5.00363c.24048-.82966.49048-1.6566.69367-2.492a16.48032,16.48032,0,0,0,.4896-2.54016,38.6023,38.6023,0,0,1,.53722-5.27407,15.964,15.964,0,0,1,2.1344-4.80468c.98013-1.49357,1.86929-3.00014,2.6786-4.53969.80113-1.54282,1.71457-3.02631,2.408-4.61559.6935-1.5902,1.39434-3.1825,1.94911-4.86361a32.58082,32.58082,0,0,0,1.50176-5.19651l-.31858-.19143a28.71254,28.71254,0,0,0-3.75845,3.9747,36.18282,36.18282,0,0,0-2.93123,4.5141,33.14911,33.14911,0,0,0-2.066,4.96215c-.287.85148-.61627,1.68317-.81933,2.56612-.22034.87576-.3743,1.77482-.54429,2.662-.19.87989-.30877,1.78251-.54808,2.63777-.234.85781-.50991,1.69826-.82761,2.528-.65819,1.64787-1.71611,3.19573-2.40144,4.87975a12.4187,12.4187,0,0,0-.71687,2.60627,20.4848,20.4848,0,0,0-.3135,2.69691,14.25593,14.25593,0,0,0,.63735,5.49125Z"/><path fill="#ee781d" d="M322.45959,405.99147c1.39821-2.09488,4.36426-2.397,8.64765-2.83325a25.237,25.237,0,0,1,15.574,3.26026,27.092,27.092,0,0,1,7.92711,7.5724c2.75529,3.55534,7.0557,9.10443,5.8772,15.53565a6.23787,6.23787,0,0,1-1.11752,3.12791c-3.70354,4.57022-16.533,1.59354-24.86825-4.40947C325.98927,422.11571,319.28037,410.75471,322.45959,405.99147Z"/><path fill="#e06714" d="M324.14442,406.50485a41.728,41.728,0,0,0,4.32409,3.12057c.73453.45432,1.464.91727,2.21417,1.33742a16.48235,16.48235,0,0,0,2.31527,1.15385,38.62037,38.62037,0,0,1,4.93578,1.93431,15.97208,15.97208,0,0,1,4.0547,3.347c1.17532,1.345,2.38784,2.6062,3.65332,3.79962,1.27085,1.186,2.45443,2.46451,3.79892,3.55933,1.34538,1.09529,2.69106,2.19793,4.16118,3.18407a32.581,32.581,0,0,0,4.602,2.8425l.27019-.2556a28.73079,28.73079,0,0,0-2.819-4.68777,36.18308,36.18308,0,0,0-3.5608-4.0363,33.19337,33.19337,0,0,0-4.22453-3.32332c-.74312-.50491-1.45592-1.04544-2.25184-1.47823-.78442-.4476-1.60886-.83746-2.418-1.23963-.79647-.41935-1.63381-.77616-2.39358-1.23641-.76339-.45587-1.4988-.94757-2.21271-1.47651-1.41022-1.07643-2.61717-2.51131-4.05517-3.62385a12.41433,12.41433,0,0,0-2.31785-1.39066,20.484,20.484,0,0,0-2.51342-1.0267,14.2532,14.2532,0,0,0-5.46064-.86111Z"/><path fill="#ee781d" d="M287.80459,296.755c-1.80955-.27684-2.92036-2.13743-4.52452-4.82437a18.34289,18.34289,0,0,1-2.64065-11.2594,19.6912,19.6912,0,0,1,2.55022-7.5488c1.49451-2.90766,3.82711-7.44587,8.425-8.64684a4.534,4.534,0,0,1,2.40362-.2256c4.14854,1.03416,6.13222,10.39884,4.74108,17.73395C297.339,289.47326,291.91906,297.38447,287.80459,296.755Z"/><path fill="#e06714" d="M287.60151,295.49129c.26281-1.30375.41066-2.556.56533-3.812a30.05561,30.05561,0,0,0,.236-3.76426,30.89558,30.89558,0,0,1-.12283-3.84015,10.02821,10.02821,0,0,1,.326-1.88261,14.06846,14.06846,0,0,1,.58089-1.83155c.47635-1.19946.9029-2.397,1.2897-3.60346.37084-1.21043.83415-2.39131,1.15159-3.6145.31393-1.2248.65025-2.44561.8797-3.70871a27.40721,27.40721,0,0,0,.614-3.85085l-.20728-.082a23.8913,23.8913,0,0,0-2.064,3.35164c-.28643.58455-.55114,1.17847-.80538,1.777a17.59341,17.59341,0,0,0-.69615,1.81961,27.98037,27.98037,0,0,0-.91505,3.786c-.11386.64021-.2496,1.27434-.31272,1.92468-.06962.64889-.08717,1.30733-.13121,1.95691-.05243.6481-.04568,1.30548-.13014,1.94393-.06756.64178-.17233,1.2756-.29159,1.90912-.26114,1.261-.75956,2.50342-1.01947,3.7902a14.39269,14.39269,0,0,0-.11895,3.90973,11.66387,11.66387,0,0,0,.95137,3.85641Z"/><path fill="#ee781d" d="M293.644,340.50981c.13169-1.58272,2.17354-3.30316,5.12225-5.78772a37.20711,37.20711,0,0,1,12.7836-7.118,29.67761,29.67761,0,0,1,9.023-1.286c3.5291-.08205,9.03727-.21011,10.91163,2.96792a2.35351,2.35351,0,0,1,.5133,1.83951c-.76526,3.80547-11.41989,9.55415-20.07369,11.68075C303.08829,344.97752,293.34453,344.10855,293.644,340.50981Z"/><path fill="#e06714" d="M295.123,339.83816a20.92,20.92,0,0,0,2.32716-.3316c.76107-.12922,1.49524-.312,2.23057-.4922a26.0185,26.0185,0,0,0,4.28388-1.4178,40.28788,40.28788,0,0,1,4.12135-2.03732,15.985,15.985,0,0,1,4.48277-.82627c.76756-.04623,1.54081-.05546,2.2967-.13332.7564-.07485,1.50794-.16606,2.25812-.25931l2.24575-.2933c.75145-.07877,1.4928-.20812,2.2323-.35259,1.4715-.33075,2.94953-.63444,4.4113-1.096a30.04527,30.04527,0,0,0,4.39665-1.55955l-.03071-.29578a29.06509,29.06509,0,0,0-9.305-.18063,32.59114,32.59114,0,0,0-4.51019,1.02326c-.74346.20635-1.48815.40472-2.21423.68357-.73013.26013-1.44254.58877-2.16065.88043a21.366,21.366,0,0,1-4.36175,1.48582,23.23594,23.23594,0,0,1-2.30253.31379,22.87709,22.87709,0,0,0-2.3278.28862,11.499,11.499,0,0,0-2.22.66283,20.24224,20.24224,0,0,0-2.12082.94946,16.69183,16.69183,0,0,0-2.01649,1.196,11.04513,11.04513,0,0,0-1.84915,1.52589Z"/><path fill="#f9ae2b" d="M308.08148,351.67482c.29379-1.60492,2.55434-3.15856,5.8189-5.40225a38.22356,38.22356,0,0,1,13.78555-5.992,30.48828,30.48828,0,0,1,9.35431-.40753c3.61638.271,9.26074.6939,10.85751,4.13155a2.41776,2.41776,0,0,1,.33982,1.93231c-1.165,3.81372-12.63626,8.61976-21.69764,9.92382C317.288,357.1922,307.41347,355.324,308.08148,351.67482Z"/><path fill="#e06714" d="M309.6464,351.09835c1.60545-.12726,3.13894-.38834,4.67295-.6553a41.52053,41.52053,0,0,0,4.53292-1.04489c1.483-.47178,2.9407-1.13569,4.46911-1.46356a21.93546,21.93546,0,0,1,4.65865-.48673c.78563-.00454,1.57313.01886,2.3526-.01022l2.33469-.09726,2.32848-.11559c.77747-.01926,1.55107-.077,2.324-.146,1.544-.1772,3.09215-.30492,4.63923-.5623a41.95052,41.95052,0,0,0,4.66321-.869l-.00114-.223a37.74222,37.74222,0,0,0-9.46521-.72216,41.17968,41.17968,0,0,0-4.70427.541,35.78623,35.78623,0,0,0-4.639.995,32.53285,32.53285,0,0,1-4.61653.98784c-1.55831.19668-3.169.15962-4.74393.35525a15.20333,15.20333,0,0,0-2.3232.4749c-.765.20028-1.52041.43891-2.26632.71092A18.91925,18.91925,0,0,0,309.5667,350.89Z"/><path fill="#f9ae2b" d="M290.95679,331.209c1.28529-1.94449.47863-4.58309-.68629-8.3936a23.35585,23.35585,0,0,0-8.36989-12.11546,25.07224,25.07224,0,0,0-9.30428-4.04487c-4.02162-1.07458-10.29847-2.75176-15.36173.5614a5.77284,5.77284,0,0,0-2.26724,2.07576c-2.56962,4.79932,4.57349,14.67534,12.68545,19.63154C275.93537,333.98416,288.03437,335.6303,290.95679,331.209Z"/><path fill="#e06714" d="M290.19318,329.73208a12.68477,12.68477,0,0,0-2.63286-4.42087,18.092,18.092,0,0,0-1.77129-1.7906,10.78835,10.78835,0,0,0-2.02628-1.47489c-1.47724-.81641-3.164-1.29151-4.592-2.10418a22.09041,22.09041,0,0,1-2.05352-1.36012c-.66257-.48745-1.26181-1.08422-1.89977-1.62395-.6275-.5568-1.24977-1.13292-1.90963-1.64952a23.70189,23.70189,0,0,0-2.062-1.40911,29.15441,29.15441,0,0,0-4.349-2.42939,31.566,31.566,0,0,0-4.74158-1.55608,25.01305,25.01305,0,0,0-5.04828-.63448l-.13067.34789a28.2424,28.2424,0,0,0,4.03835,2.99376,47.29634,47.29634,0,0,0,4.18889,2.44c1.41268.75719,2.93087,1.2972,4.40168,1.94542a44.99219,44.99219,0,0,0,4.5745,1.70239,13.86344,13.86344,0,0,1,4.32405,2.22964,34.173,34.173,0,0,1,3.376,3.5711,13.82672,13.82672,0,0,0,1.807,1.56427c.62778.48636,1.28672.93737,1.94163,1.394a33.81108,33.81108,0,0,0,4.27487,2.49743Z"/><path fill="#ee781d" d="M308.90754,400.488c1.123-2.281-.11307-5.025-1.89817-8.98776a25.47572,25.47572,0,0,0-10.72457-11.95715,27.34823,27.34823,0,0,0-10.62451-3.09579c-4.49951-.60906-11.52224-1.55969-16.54477,2.72237a6.29692,6.29692,0,0,0-2.16749,2.55819c-2.1197,5.54686,6.96913,15.24973,16.429,19.49575C293.03577,405.55887,306.354,405.67436,308.90754,400.488Z"/><path fill="#e06714" d="M307.86652,399.00705A14.458,14.458,0,0,0,304.346,394.682a20.81229,20.81229,0,0,0-2.16861-1.67476,12.62415,12.62415,0,0,0-2.38649-1.32214c-1.69768-.69544-3.5586-1.029-5.21188-1.71772q-1.23385-.5352-2.40894-1.18615c-.78643-.43016-1.52209-.98005-2.29183-1.46239-.76111-.50172-1.51941-1.02331-2.30725-1.48116-.78125-.47516-1.61392-.8239-2.431-1.217a33.68365,33.68365,0,0,0-5.03983-2.00788,36.768,36.768,0,0,0-5.325-1.07391,29.19676,29.19676,0,0,0-5.51768-.1036l-.08568.36162a33.14551,33.14551,0,0,0,4.81379,2.57137c1.606.78326,3.25063,1.39955,4.88833,2.02059,1.63681.62055,3.35242,1.0093,5.03079,1.52122,1.68255.503,3.39683.92681,5.16526,1.27663a16.23541,16.23541,0,0,1,4.97311,1.85344,39.18335,39.18335,0,0,1,4.19095,3.3263,16.82856,16.82856,0,0,0,2.1802,1.43852c.74635.44314,1.51927.84695,2.28731,1.25985a42.87781,42.87781,0,0,0,4.90667,2.20975Z"/><path fill="#f9ae2b" d="M311.89554,393.01832c1.97128-1.59253,2.0799-5.01022,2.23677-9.94585a34.58463,34.58463,0,0,0-4.19572-17.99162,32.57061,32.57061,0,0,0-7.95042-9.214c-3.67141-3.21137-9.40166-8.22361-15.65127-6.92576a5.236,5.236,0,0,0-3.005,1.259c-4.25906,4.22756-.5166,19.05139,5.91641,28.72107C295.81462,388.79422,307.41336,396.63938,311.89554,393.01832Z"/><path fill="#e06714" d="M311.63433,390.96028a18.152,18.152,0,0,0-1.07362-6.08636,25.52866,25.52866,0,0,0-1.12421-2.831,15.28323,15.28323,0,0,0-1.48886-2.646c-1.17732-1.664-2.68448-3.11121-3.83229-4.74978-.56819-.8249-1.07948-1.68263-1.57419-2.5534-.49237-.87181-.88791-1.81029-1.32627-2.72464-.43415-.91676-.85525-1.84821-1.33515-2.74176a29.58133,29.58133,0,0,0-1.573-2.59016,41.00066,41.00066,0,0,0-3.53468-4.91053,28.3039,28.3039,0,0,0-2.07047-2.20857q-1.07792-1.06569-2.217-2.07088a35.34294,35.34294,0,0,0-4.98873-3.56911l-.26978.25571a41.64961,41.64961,0,0,0,3.05311,5.25389c1.057,1.69373,2.24839,3.25969,3.412,4.84326,1.18,1.56966,2.53091,3.0022,3.79936,4.50768,1.27689,1.49944,2.60543,2.96243,4.04072,4.37428a20.49014,20.49014,0,0,1,3.56049,4.7591,48.65257,48.65257,0,0,1,2.12507,5.59356,39.41452,39.41452,0,0,0,2.70854,5.207,49.163,49.163,0,0,0,3.35267,4.99391Z"/><path fill="#ee781d" d="M316.229,425.58779c-.96285-1.50512-3.34943-1.84675-6.796-2.34011a24.38435,24.38435,0,0,0-12.93392,1.54255,22.96437,22.96437,0,0,0-7.0745,4.85562c-2.53564,2.32333-6.49323,5.94953-6.06923,10.42989a3.69172,3.69172,0,0,0,.64882,2.20362c2.63168,3.313,13.31049,1.842,20.58647-1.91483C312.01967,436.52866,318.41837,429.01007,316.229,425.58779Z"/><path fill="#e06714" d="M314.76343,425.59365a9.01879,9.01879,0,0,0-2.22953-.11216,13.60859,13.60859,0,0,0-2.15852.27843,16.63557,16.63557,0,0,0-2.08275.55123,9.74448,9.74448,0,0,0-1.97092.84852c-1.25183.71821-2.36153,1.71463-3.595,2.40156a20.24034,20.24034,0,0,1-1.91415.9032c-.65251.27154-1.34827.46251-2.03111.6855-.67954.22772-1.38006.42435-2.04889.68429a20.84362,20.84362,0,0,0-1.9526.88088,27.26638,27.26638,0,0,0-3.73342,2.08106,24.45557,24.45557,0,0,0-6.12932,6.03512l.17952.23708a25.52563,25.52563,0,0,0,3.98614-1.63467c1.28731-.5797,2.4811-1.283,3.6832-1.96715,1.19167-.70017,2.28939-1.54827,3.4365-2.32706a40.99125,40.99125,0,0,0,3.3399-2.55013,13.00663,13.00663,0,0,1,3.59055-2.15913,32.11333,32.11333,0,0,1,4.11592-.96985,23.11688,23.11688,0,0,0,3.84719-1.49942c.6238-.3044,1.24914-.59983,1.86427-.95507a20.55689,20.55689,0,0,0,1.85592-1.11956Z"/><path fill="#ee781d" d="M291.78073,331.54136c-.92325-2.2098-3.80869-3.11142-7.97565-4.4135a26.46809,26.46809,0,0,0-25.82234,4.94634c-3.53888,2.66893-9.06229,6.83452-9.32824,12.96185a5.43227,5.43227,0,0,0,.41261,3.09491c2.6645,4.95866,16.10388,4.94311,25.746,1.21343C284.658,345.53628,293.88,336.56588,291.78073,331.54136Z"/><path fill="#e06714" d="M289.96892,331.29559a14.76871,14.76871,0,0,0-5.532-.45775,20.88151,20.88151,0,0,0-2.69788.38656,12.3968,12.3968,0,0,0-2.59978.78037c-1.67656.72269-3.212,1.81319-4.85653,2.50475-.82738.33685-1.67086.62079-2.5274.87482-.85585.255-1.75882.3949-2.64249.59331-.88893.1858-1.7895.35537-2.66553.591a25.64873,25.64873,0,0,0-2.56848.85637,33.591,33.591,0,0,0-4.962,2.13709,23.69154,23.69154,0,0,0-2.30528,1.412q-1.12531.75334-2.20371,1.57919a28.82323,28.82323,0,0,0-3.96594,3.80919l.19418.317a33.20188,33.20188,0,0,0,5.21008-1.56483c1.68466-.57692,3.2774-1.30258,4.8723-2.01458,1.58913-.72123,3.07572-1.64861,4.617-2.47745a52.88156,52.88156,0,0,0,4.53329-2.75521,16.31648,16.31648,0,0,1,4.801-2.2228,39.801,39.801,0,0,1,5.29634-.65139,16.98106,16.98106,0,0,0,2.54676-.55353c.83645-.22857,1.66379-.49674,2.49279-.76315a39.05318,39.05318,0,0,0,4.981-2.00955Z"/><path fill="#f9ae2b" d="M280.7796,293.74673c2.21288-1.81491,2.22347-5.20269,2.23877-10.0951a28.67706,28.67706,0,0,0-5.42489-17.24745c-3.00172-4.06945-6.259-6.11576-9.44769-8.119-4.32793-2.71894-11.08288-6.9626-18.22387-4.91219a7.08813,7.08813,0,0,0-3.41237,1.61281c-4.75475,4.69808.04316,18.87364,7.76171,27.62928C262.15213,291.55485,275.74808,297.87344,280.7796,293.74673Z"/><path fill="#e06714" d="M280.38028,291.75289a17.27816,17.27816,0,0,0-1.72872-5.98668,25.09885,25.09885,0,0,0-1.46067-2.70536,15.59877,15.59877,0,0,0-1.81522-2.46729c-1.3888-1.51666-3.07958-2.76871-4.44189-4.25228-.67035-.75322-1.31-1.528-1.91782-2.33337-.61213-.80072-1.12459-1.693-1.70317-2.53117-.56153-.85349-1.11219-1.72392-1.7163-2.54861-.5905-.83753-1.28545-1.57668-1.945-2.35227a40.94344,40.94344,0,0,0-4.24272-4.376,28.70526,28.70526,0,0,0-2.39294-1.8893q-1.23186-.90124-2.51507-1.73315a36.19411,36.19411,0,0,0-5.50219-2.79783l-.22779.29377a41.47784,41.47784,0,0,0,3.841,4.75358c1.3061,1.52509,2.72117,2.9084,4.119,4.30372,1.39657,1.395,2.96368,2.60808,4.43565,3.92924,1.48381,1.31007,3.0213,2.56877,4.63767,3.78328a20.10661,20.10661,0,0,1,4.19825,4.25314,46.73524,46.73524,0,0,1,2.84672,5.2947,22.103,22.103,0,0,0,1.57934,2.48793c.55724.80588,1.15549,1.58666,1.74059,2.3767,1.19989,1.56787,2.43907,3.10612,3.86567,4.634Z"/><path fill="#f9ae2b" d="M321.846,406.25693c-1.9393-1.60707-1.93349-4.58846-1.9251-8.894a25.237,25.237,0,0,1,4.85109-15.154,27.09218,27.09218,0,0,1,8.35052-7.10276c3.82086-2.37342,9.78437-6.0778,16.05951-4.24148a6.23788,6.23788,0,0,1,2.99578,1.43456c4.16334,4.15569-.12228,16.60919-6.95394,24.27994C338.24849,404.4112,326.25542,409.911,321.846,406.25693Z"/><path fill="#e06714" d="M322.53075,404.63421a41.72318,41.72318,0,0,0,3.55-3.9789c.52775-.68371,1.06372-1.36142,1.559-2.064a16.45973,16.45973,0,0,0,1.387-2.1838,38.64445,38.64445,0,0,1,2.43342-4.70967,15.968,15.968,0,0,1,3.748-3.68742c1.45908-1.03014,2.83876-2.10573,4.15667-3.24133,1.31082-1.1416,2.70482-2.18685,3.93238-3.4111,1.22842-1.22517,2.46425-2.44963,3.59678-3.81017a32.58708,32.58708,0,0,0,3.3026-4.28393l-.22625-.29494a28.71425,28.71425,0,0,0-4.95392,2.31977,36.175,36.175,0,0,0-4.38253,3.12488,33.17873,33.17873,0,0,0-3.74173,3.85894c-.579.687-1.19014,1.34-1.70286,2.087-.52609.73391-.99908,1.51393-1.4828,2.277-.49927.74893-.94058,1.54511-1.477,2.25309-.53215.71223-1.09714,1.39295-1.6969,2.04842-1.21621,1.29175-2.76834,2.344-4.02335,3.65936a12.4293,12.4293,0,0,0-1.62265,2.1619,20.47077,20.47077,0,0,0-1.28061,2.39406,14.25323,14.25323,0,0,0-1.4205,5.34252Z"/><rect width="25.156" height="207.538" x="328.532" y="249.87" fill="#ee781d"/><line x1="328.532" x2="353.688" y1="261.749" y2="261.749" fill="none" stroke="#e06714" stroke-miterlimit="10" stroke-width="4"/><line x1="328.532" x2="353.688" y1="274.309" y2="274.309" fill="none" stroke="#e06714" stroke-miterlimit="10" stroke-width="4"/><line x1="328.532" x2="353.688" y1="286.869" y2="286.869" fill="none" stroke="#e06714" stroke-miterlimit="10" stroke-width="4"/><line x1="328.532" x2="353.688" y1="299.429" y2="299.429" fill="none" stroke="#e06714" stroke-miterlimit="10" stroke-width="4"/><line x1="328.532" x2="353.688" y1="311.989" y2="311.989" fill="none" stroke="#e06714" stroke-miterlimit="10" stroke-width="4"/><line x1="328.532" x2="353.688" y1="324.549" y2="324.549" fill="none" stroke="#e06714" stroke-miterlimit="10" stroke-width="4"/><line x1="328.532" x2="353.688" y1="337.108" y2="337.108" fill="none" stroke="#e06714" stroke-miterlimit="10" stroke-width="4"/><line x1="328.532" x2="353.688" y1="349.668" y2="349.668" fill="none" stroke="#e06714" stroke-miterlimit="10" stroke-width="4"/><line x1="328.532" x2="353.688" y1="362.228" y2="362.228" fill="none" stroke="#e06714" stroke-miterlimit="10" stroke-width="4"/><line x1="328.532" x2="353.688" y1="374.788" y2="374.788" fill="none" stroke="#e06714" stroke-miterlimit="10" stroke-width="4"/><line x1="328.532" x2="353.688" y1="387.348" y2="387.348" fill="none" stroke="#e06714" stroke-miterlimit="10" stroke-width="4"/><line x1="328.532" x2="353.688" y1="399.907" y2="399.907" fill="none" stroke="#e06714" stroke-miterlimit="10" stroke-width="4"/><line x1="328.532" x2="353.688" y1="412.467" y2="412.467" fill="none" stroke="#e06714" stroke-miterlimit="10" stroke-width="4"/><line x1="328.532" x2="353.688" y1="425.027" y2="425.027" fill="none" stroke="#e06714" stroke-miterlimit="10" stroke-width="4"/><path fill="#f9ae2b" d="M383.5952,108.57667H298.625a3,3,0,0,0-2.59807,1.5l-42.48512,73.58638a3,3,0,0,0,0,3l42.48512,73.58637a3,3,0,0,0,2.59807,1.5H383.5952a3,3,0,0,0,2.59807-1.5l42.48512-73.58637a3,3,0,0,0,0-3l-42.48512-73.58638A3,3,0,0,0,383.5952,108.57667Z"/><path fill="none" stroke="#dbe8ec" stroke-miterlimit="10" stroke-width="2" d="M376.967,120.05707h-71.7138a3,3,0,0,0-2.59808,1.5l-35.8569,62.106a3,3,0,0,0,0,3l35.8569,62.106a3,3,0,0,0,2.59808,1.5H376.967a3,3,0,0,0,2.59808-1.5l35.8569-62.106a3,3,0,0,0,0-3l-35.8569-62.106A3,3,0,0,0,376.967,120.05707Z"/><text fill="#d62828" font-family="Baloo-Regular, Baloo" font-size="40.865" transform="translate(293.053 197.354)"><tspan letter-spacing="-.013em">S</tspan><tspan x="21.986" y="0" letter-spacing="-.026em">T</tspan><tspan x="43.645" y="0">OP</tspan></text><path fill="#e06714" d="M367.13489,425.52751q.49-1.77641,1.03737-3.75183l3.56644-2.57545-1.06627-1.47659-1.72073,1.2426c.55221-1.9881,1.137-4.089,1.74823-6.28087l5.61364-4.73172-1.17381-1.39257-3.57068,3.00972c4.477-16.03244,10.10861-36.03634,14.58933-51.92051a10.20109,10.20109,0,0,1,2.97184-2.76058l-.75774-1.65628a6.13626,6.13626,0,0,0-1.17473.733c2.20934-7.82914,4.064-14.39186,5.24788-18.57917a37.9344,37.9344,0,0,1,4.838-9.2491l-.72217-.55487-.72183-.55524a34.723,34.723,0,0,0-3.00912,4.92406l-.15466-2.15386-1.81662.13046.36511,5.08409c-1.19981,4.24248-3.54517,12.53945-6.40524,22.67681-.4934-1.76371-1.0112-3.50286-1.0484-3.62768l-1.74554.52037c.01508.05032,1.44322,4.8466,1.81646,6.57254-.85669,3.03759-1.75048,6.20824-2.66612,9.4584a28.93774,28.93774,0,0,0-8.267.0818l.30322,1.796a27.87853,27.87853,0,0,1,7.466-.11076c-3.51222,12.4698-7.30136,25.95251-10.533,37.5196-2.53541.60706-6.60331,3.344-7.09673,3.68033l1.02584,1.50493a34.78432,34.78432,0,0,1,5.48346-3.08174c-2.87339,10.29382-4.56358,16.56722-5.80186,21.19016l1.75931.47134c.45978-1.71651.39633-1.69035,1.1363-4.38088,1.16315.30722,3.21111.87085,4.26589,1.29718l.68224-1.68852A46.42147,46.42147,0,0,0,367.13489,425.52751Z"/><path fill="#f9ae2b" d="M370.283,417.29374c.2048-1.55184,1.97139-2.70945,4.5226-4.38121a21.362,21.362,0,0,1,10.83473-3.58084,20.118,20.118,0,0,1,7.41664,1.22439c2.87484.90138,7.36182,2.30823,8.68979,6.02043a3.23419,3.23419,0,0,1,.30383,1.98936c-.85723,3.60616-9.8762,6.406-17.04452,6.12825C377.687,424.41047,369.81732,420.82224,370.283,417.29374Z"/><path fill="#e06714" d="M371.44524,416.743a10.00552,10.00552,0,0,1,3.53539-1.57468,13.83254,13.83254,0,0,1,1.859-.34913,7.98945,7.98945,0,0,1,1.88231-.0529c1.263.118,2.51578.53624,3.75.62761a15.75853,15.75853,0,0,0,1.855.004c.61881-.0313,1.24249-.1479,1.86792-.23448.6254-.09039,1.25489-.19546,1.88341-.24684a16.016,16.016,0,0,1,1.87978-.04243,21.98963,21.98963,0,0,1,3.74139.251,23.16109,23.16109,0,0,1,3.63452.95716,18.49533,18.49533,0,0,1,3.45656,1.66275l-.05894.27695a21.36157,21.36157,0,0,1-3.78343.26416,36.19328,36.19328,0,0,1-3.65323-.16422c-1.20466-.10752-2.38829-.379-3.58474-.583a31.01939,31.01939,0,0,1-3.59038-.8271,10.62513,10.62513,0,0,0-3.64786-.40457,26.78486,26.78486,0,0,0-3.62038.81719,18.0163,18.0163,0,0,1-3.60389.23271,21.94132,21.94132,0,0,1-3.7301-.34041Z"/><path fill="#f9ae2b" d="M382.75082,353.3698c1.823-.59717,2.65156-2.71143,3.84809-5.76472a19.22208,19.22208,0,0,0,.79475-12.09313,20.63519,20.63519,0,0,0-3.93357-7.36524c-2.04464-2.74893-5.23587-7.0394-10.19534-7.4907a4.75121,4.75121,0,0,0-2.52349.17986c-4.11079,1.782-4.552,11.80357-1.85336,19.14711C371.64332,347.481,378.6057,354.72764,382.75082,353.3698Z"/><path fill="#e06714" d="M382.71884,352.02874a31.78371,31.78371,0,0,1-1.40441-3.81106c-.18316-.63192-.37357-1.26177-.52834-1.898a12.55226,12.55226,0,0,1-.3729-1.93474,29.40188,29.40188,0,0,0-.40918-4.01705,12.15947,12.15947,0,0,0-1.62569-3.65953c-.74653-1.13759-1.42377-2.28509-2.04018-3.4577-.61019-1.17511-1.30592-2.305-1.83406-3.51551-.52822-1.2112-1.062-2.424-1.48457-3.70442a24.81606,24.81606,0,0,1-1.14383-3.958l.24265-.14581a21.86947,21.86947,0,0,1,2.86267,3.02737,27.56141,27.56141,0,0,1,2.2326,3.43821,25.25028,25.25028,0,0,1,1.57361,3.77947c.2186.64854.46938,1.282.624,1.95452.16783.667.28509,1.3518.41457,2.0275.14468.67018.23517,1.35767.41744,2.00909.17824.65336.38838,1.29349.63036,1.9255.50132,1.25511,1.3071,2.43406,1.82908,3.7167a9.45832,9.45832,0,0,1,.546,1.9851,15.60351,15.60351,0,0,1,.23878,2.05412,10.85816,10.85816,0,0,1-.48545,4.18248Z"/><path fill="#ee781d" d="M364.50589,412.11769c-1.065-1.59559-3.32408-1.82568-6.58657-2.158a19.22212,19.22212,0,0,0-11.86209,2.48321,20.6349,20.6349,0,0,0-6.03776,5.7676c-2.0986,2.708-5.374,6.93448-4.47643,11.83288a4.75123,4.75123,0,0,0,.85117,2.38241c2.82084,3.481,12.59254,1.21373,18.94115-3.35852C361.81747,424.39888,366.92738,415.74566,364.50589,412.11769Z"/><path fill="#e06714" d="M363.22262,412.50871a31.7821,31.7821,0,0,1-3.29349,2.37681c-.55945.346-1.1151.69865-1.68644,1.01866a12.55367,12.55367,0,0,1-1.76344.87884,29.41394,29.41394,0,0,0-3.75939,1.47329,12.16527,12.16527,0,0,0-3.08831,2.54927c-.89519,1.02445-1.81872,1.985-2.78258,2.894-.968.90334-1.86944,1.87711-2.89349,2.711-1.02472.83424-2.04967,1.67408-3.1694,2.42519a24.816,24.816,0,0,1-3.50516,2.165l-.20579-.19468a21.883,21.883,0,0,1,2.14709-3.57048,27.55879,27.55879,0,0,1,2.71213-3.07429,25.28109,25.28109,0,0,1,3.21765-2.53124c.566-.38457,1.10892-.79627,1.71514-1.12591.59746-.34092,1.2254-.63786,1.84171-.94418.60664-.3194,1.24441-.59117,1.82309-.94172.58145-.34722,1.14158-.72173,1.68533-1.1246,1.07411-.81987,1.9934-1.91276,3.08866-2.76014a9.45528,9.45528,0,0,1,1.76542-1.05921,15.60231,15.60231,0,0,1,1.91437-.782,10.856,10.856,0,0,1,4.15916-.65587Z"/><path fill="#ee781d" d="M390.90122,328.9166c1.37826-.21087,2.22432-1.628,3.44615-3.67453a13.971,13.971,0,0,0,2.01127-8.57584,14.99792,14.99792,0,0,0-1.94239-5.74962c-1.13831-2.21465-2.915-5.67122-6.417-6.58595a3.45312,3.45312,0,0,0-1.83074-.17183c-3.15978.78768-4.67067,7.92038-3.61109,13.50724C383.63926,323.37042,387.7674,329.39606,390.90122,328.9166Z"/><path fill="#e06714" d="M391.0559,327.95411c-.20017-.993-.31278-1.9468-.43059-2.90346a22.89348,22.89348,0,0,1-.17978-2.86709,23.53146,23.53146,0,0,0,.09355-2.92489,7.638,7.638,0,0,0-.24828-1.43391,10.716,10.716,0,0,0-.44244-1.395c-.36282-.91358-.68771-1.8257-.98231-2.74461-.28246-.92194-.63535-1.82137-.87712-2.753-.23911-.93288-.49527-1.86273-.67-2.82478a20.877,20.877,0,0,1-.46767-2.933l.15788-.06244a18.19708,18.19708,0,0,1,1.57209,2.55281c.21816.44523.41978.89759.61342,1.3535a13.39861,13.39861,0,0,1,.53024,1.38593,21.31346,21.31346,0,0,1,.697,2.88364c.08672.48763.1901.97061.23818,1.466.053.49423.06639.99573.09994,1.49049.03993.49364.03479.99434.09912,1.48062.05146.48882.13126.97157.22209,1.4541.19891.96042.57853,1.90675.77649,2.88684a10.96191,10.96191,0,0,1,.0906,2.97789,8.88363,8.88363,0,0,1-.72462,2.93727Z"/><path fill="#ee781d" d="M386.45359,362.24292c-.1003-1.2055-1.65549-2.51589-3.90141-4.40827a28.339,28.339,0,0,0-9.73676-5.42154,22.6043,22.6043,0,0,0-6.87245-.9795c-2.688-.0625-6.88333-.16-8.31095,2.26054a1.7925,1.7925,0,0,0-.391,1.40108c.58286,2.89848,8.69807,7.277,15.28932,8.89676C379.26024,365.6458,386.68167,364.98393,386.45359,362.24292Z"/><path fill="#e06714" d="M385.32708,361.73135a15.9328,15.9328,0,0,1-1.7725-.25257c-.57968-.09842-1.13887-.23765-1.69894-.37489a19.8155,19.8155,0,0,1-3.26286-1.07988,30.68384,30.68384,0,0,0-3.13907-1.55174,12.17506,12.17506,0,0,0-3.41434-.62934c-.58462-.03521-1.17358-.04224-1.74931-.10154-.57612-.057-1.14854-.12649-1.71992-.19751l-1.7105-.22339c-.57235-.06-1.137-.15853-1.70025-.26856-1.12079-.25192-2.24654-.48323-3.35991-.83482a22.88441,22.88441,0,0,1-3.34876-1.18784l.0234-.22529a22.13755,22.13755,0,0,1,7.08727-.13757,24.823,24.823,0,0,1,3.43524.77937c.56626.15717,1.13346.30826,1.68649.52064.5561.19814,1.09872.44845,1.64567.67059a16.27351,16.27351,0,0,0,3.32218,1.13169,17.69588,17.69588,0,0,0,1.75374.239,17.42364,17.42364,0,0,1,1.773.21983,8.75849,8.75849,0,0,1,1.69089.50485,15.41552,15.41552,0,0,1,1.61535.72316,12.71449,12.71449,0,0,1,1.53588.911,8.41331,8.41331,0,0,1,1.40843,1.1622Z"/><path fill="#f9ae2b" d="M375.45712,370.74686c-.22376-1.2224-1.94554-2.40575-4.432-4.11468a29.11335,29.11335,0,0,0-10.4999-4.56386,23.22217,23.22217,0,0,0-7.12481-.3104c-2.75445.20639-7.05353.52852-8.26973,3.14684a1.84151,1.84151,0,0,0-.25883,1.47176c.88736,2.90477,9.62454,6.56533,16.52623,7.55858C368.44488,374.94923,375.96592,373.52631,375.45712,370.74686Z"/><path fill="#e06714" d="M374.26518,370.30778c-1.2228-.09692-2.39079-.29578-3.55919-.49911a31.62648,31.62648,0,0,1-3.45255-.79585c-1.12954-.35934-2.23981-.865-3.40394-1.11473a16.70711,16.70711,0,0,0-3.54831-.37073c-.59838-.00345-1.19819.01437-1.79188-.00779l-1.77824-.07407-1.77351-.088c-.59216-.01467-1.18139-.05865-1.77008-.11123-1.176-.135-2.35516-.23225-3.53351-.42829a31.95066,31.95066,0,0,1-3.55178-.66188l.00086-.16988a28.7473,28.7473,0,0,1,7.20928-.55,31.36585,31.36585,0,0,1,3.58305.412,27.25778,27.25778,0,0,1,3.53336.75786,24.77952,24.77952,0,0,0,3.51623.75241c1.1869.1498,2.41372.12157,3.61326.27057a11.58142,11.58142,0,0,1,1.76949.36171c.58264.15255,1.158.33431,1.72616.54149a14.41,14.41,0,0,1,3.272,1.61691Z"/><path fill="#f9ae2b" d="M388.50032,355.15885c-.979-1.481-.36456-3.49076.52272-6.39307a17.78925,17.78925,0,0,1,6.375-9.22787,19.09666,19.09666,0,0,1,7.0867-3.08081c3.0631-.81847,7.84393-2.0959,11.70041.42759a4.39705,4.39705,0,0,1,1.72687,1.581c1.95718,3.65546-3.48344,11.17763-9.662,14.95257C399.94153,357.27259,390.72621,358.52639,388.50032,355.15885Z"/><path fill="#e06714" d="M389.08193,354.034a9.66145,9.66145,0,0,1,2.00534-3.3672,13.77924,13.77924,0,0,1,1.34913-1.36383,8.21754,8.21754,0,0,1,1.54333-1.12337c1.12515-.62182,2.40988-.98368,3.49756-1.60267a16.824,16.824,0,0,0,1.56408-1.03594c.50465-.37127.96106-.82581,1.447-1.2369.478-.42409.9519-.8629,1.4545-1.25637a18.0514,18.0514,0,0,1,1.57056-1.07327,22.20431,22.20431,0,0,1,3.31242-1.85036,24.04225,24.04225,0,0,1,3.61147-1.18521,19.05109,19.05109,0,0,1,3.84507-.48325l.09953.265a21.51214,21.51214,0,0,1-3.07585,2.28023,36.028,36.028,0,0,1-3.19051,1.85848c-1.076.57672-2.23233.988-3.35259,1.48175a34.27112,34.27112,0,0,1-3.48421,1.29665,10.55932,10.55932,0,0,0-3.29346,1.69822,26.02827,26.02827,0,0,0-2.57135,2.72,10.532,10.532,0,0,1-1.37635,1.19144c-.47815.37044-.98.71395-1.47886,1.06172a25.75219,25.75219,0,0,1-3.256,1.9022Z"/><path fill="#ee781d" d="M374.828,407.92588c-.85538-1.73732.08612-3.82734,1.44576-6.84562a19.40391,19.40391,0,0,1,8.16847-9.10728,20.8302,20.8302,0,0,1,8.09227-2.35794c3.4271-.4639,8.776-1.188,12.6015,2.07352a4.79616,4.79616,0,0,1,1.65088,1.94848c1.61449,4.22481-5.3081,11.6151-12.51328,14.84913C386.91684,411.78819,376.77284,411.87616,374.828,407.92588Z"/><path fill="#e06714" d="M375.62085,406.79793a11.01212,11.01212,0,0,1,2.68143-3.29423,15.85064,15.85064,0,0,1,1.65175-1.27561,9.616,9.616,0,0,1,1.81769-1.007c1.29306-.52969,2.71045-.78372,3.96968-1.30831q.93978-.40766,1.8348-.90345c.599-.32764,1.15931-.74646,1.74559-1.11384.57971-.38214,1.15728-.77942,1.75734-1.12814.595-.36192,1.22926-.62754,1.85159-.927a25.65449,25.65449,0,0,1,3.83864-1.52932,28.00391,28.00391,0,0,1,4.05588-.818,22.23788,22.23788,0,0,1,4.20259-.0789l.06526.27543a25.24512,25.24512,0,0,1-3.66647,1.9585c-1.22323.59659-2.47588,1.066-3.72325,1.539-1.24669.47265-2.5534.76875-3.83175,1.15866-1.28153.38315-2.58723.70592-3.93417.97236a12.36591,12.36591,0,0,0-3.78782,1.41169,29.84437,29.84437,0,0,0-3.19208,2.53351A12.81683,12.81683,0,0,1,381.297,404.359c-.56847.33753-1.15717.64509-1.74216.95958a32.65845,32.65845,0,0,1-3.73721,1.68308Z"/><path fill="#f9ae2b" d="M372.5521,402.23656c-1.50144-1.213-1.58417-3.81609-1.70366-7.57536a26.34184,26.34184,0,0,1,3.19572-13.7035,24.80783,24.80783,0,0,1,6.05552-7.01791c2.79636-2.446,7.16087-6.26359,11.921-5.27507a3.988,3.988,0,0,1,2.28878.95893c3.24395,3.22.39347,14.51068-4.5063,21.87569C384.80031,399.01923,375.966,404.99457,372.5521,402.23656Z"/><path fill="#e06714" d="M372.75106,400.669a13.82551,13.82551,0,0,1,.81774-4.63574,19.44312,19.44312,0,0,1,.85626-2.15625,11.641,11.641,0,0,1,1.134-2.01537c.89672-1.26739,2.04467-2.36969,2.91891-3.61772.43276-.6283.82219-1.28159,1.199-1.94482.375-.664.67628-1.37883,1.01016-2.07526.33068-.69825.65141-1.4077,1.01693-2.08828a22.53,22.53,0,0,1,1.19809-1.97283,31.22752,31.22752,0,0,1,2.69222-3.74015,21.55764,21.55764,0,0,1,1.577-1.68218q.821-.8117,1.68862-1.57731a26.91958,26.91958,0,0,1,3.79972-2.71845l.20548.19477a31.72428,31.72428,0,0,1-2.32543,4.00168c-.80509,1.29005-1.71251,2.48277-2.59882,3.68891-.89874,1.19555-1.92769,2.28666-2.89382,3.43332-.97255,1.14207-1.98445,2.25637-3.07766,3.33172a15.60666,15.60666,0,0,0-2.71188,3.62481,37.05861,37.05861,0,0,0-1.61858,4.26039,30.01917,30.01917,0,0,1-2.063,3.96595,37.446,37.446,0,0,1-2.55359,3.80367Z"/><path fill="#ee781d" d="M369.25145,427.04343c.73337-1.1464,2.55113-1.4066,5.17623-1.78237a18.57254,18.57254,0,0,1,9.85125,1.17489,17.491,17.491,0,0,1,5.38836,3.69833c1.9313,1.76959,4.94564,4.53153,4.6227,7.944a2.81183,2.81183,0,0,1-.49418,1.6784c-2.00445,2.52341-10.13808,1.403-15.67989-1.45844C372.45756,435.37665,367.58393,429.65,369.25145,427.04343Z"/><path fill="#e06714" d="M370.36775,427.04789a6.86893,6.86893,0,0,1,1.69814-.08543,10.36477,10.36477,0,0,1,1.64406.21207,12.66882,12.66882,0,0,1,1.58635.41985,7.42163,7.42163,0,0,1,1.50117.64628c.95347.547,1.79868,1.306,2.73818,1.82917a15.41255,15.41255,0,0,0,1.45793.68793c.497.20682,1.02692.35228,1.547.52212.51757.17345,1.05113.32321,1.56055.5212a15.87684,15.87684,0,0,1,1.48722.67093,20.76865,20.76865,0,0,1,2.8436,1.58506,18.62683,18.62683,0,0,1,4.66846,4.59671l-.13674.18058a19.44234,19.44234,0,0,1-3.03608-1.24507c-.98049-.44153-1.88975-.97717-2.80535-1.4983-.90765-.53329-1.74374-1.17925-2.61744-1.77242a31.22368,31.22368,0,0,1-2.54387-1.94234,9.90684,9.90684,0,0,0-2.73478-1.64452,24.45991,24.45991,0,0,0-3.13493-.7387A17.60563,17.60563,0,0,1,373.161,428.851c-.47513-.23185-.95142-.45686-1.42-.72744a15.65687,15.65687,0,0,1-1.41357-.85272Z"/><path fill="#ee781d" d="M387.87275,355.412c.70321-1.68311,2.90093-2.36984,6.07474-3.36158a20.1597,20.1597,0,0,1,19.66785,3.76743c2.69542,2.03282,6.90238,5.20558,7.10495,9.87253a4.13754,4.13754,0,0,1-.31427,2.35726c-2.02945,3.77681-12.26569,3.765-19.60971.92423C393.29786,366.07138,386.27381,359.239,387.87275,355.412Z"/><path fill="#e06714" d="M389.25274,355.22482a11.24831,11.24831,0,0,1,4.21352-.34865,15.903,15.903,0,0,1,2.05486.29442,9.44184,9.44184,0,0,1,1.98015.59438c1.277.55044,2.44646,1.381,3.699,1.90777.63018.25656,1.27263.47283,1.925.66631.65187.19426,1.33962.30078,2.01268.4519.67706.14152,1.363.27068,2.03023.45013a19.53543,19.53543,0,0,1,1.95631.65226,25.586,25.586,0,0,1,3.77936,1.62774,18.04355,18.04355,0,0,1,1.75584,1.07544q.85712.57378,1.67848,1.2028a21.95406,21.95406,0,0,1,3.0207,2.90131l-.1479.24144a25.28883,25.28883,0,0,1-3.96831-1.19188c-1.28314-.43941-2.49627-.99212-3.711-1.53442-1.21038-.54933-2.34265-1.25568-3.51655-1.887a40.27744,40.27744,0,0,1-3.45283-2.09853,12.428,12.428,0,0,0-3.65669-1.693,30.31433,30.31433,0,0,0-4.034-.49613,12.93531,12.93531,0,0,1-1.93976-.4216c-.6371-.17409-1.26725-.37835-1.89867-.58126a29.74687,29.74687,0,0,1-3.7938-1.5306Z"/><path fill="#f9ae2b" d="M396.25188,326.62535c-1.68546-1.38235-1.69353-3.96268-1.70519-7.689a21.84225,21.84225,0,0,1,4.13193-13.1367,23.44756,23.44756,0,0,1,7.19593-6.1839c3.29641-2.07091,8.44138-5.30314,13.88039-3.74142a5.39891,5.39891,0,0,1,2.59907,1.22841c3.6215,3.57834-.03287,14.3753-5.91178,21.04413C410.43968,324.95588,400.08419,329.7685,396.25188,326.62535Z"/><path fill="#e06714" d="M396.556,325.10672a13.16027,13.16027,0,0,1,1.3167-4.55982,19.11489,19.11489,0,0,1,1.11254-2.06056,11.88041,11.88041,0,0,1,1.38258-1.87924c1.05779-1.15518,2.34559-2.10881,3.3832-3.23879.51058-.5737.99777-1.16381,1.46073-1.77723.46624-.60988.85656-1.28947,1.29724-1.9279.4277-.65007.84711-1.313,1.30724-1.94117.44976-.63792.97907-1.2009,1.48144-1.79163a31.1851,31.1851,0,0,1,3.23151-3.333,21.86422,21.86422,0,0,1,1.82261-1.439q.93825-.68644,1.91562-1.32007a27.56733,27.56733,0,0,1,4.19081-2.131l.1735.22376a31.59085,31.59085,0,0,1-2.92554,3.62061c-.9948,1.1616-2.0726,2.21521-3.13726,3.278-1.06371,1.06248-2.25731,1.98647-3.37845,2.99275-1.13017.99782-2.30121,1.95653-3.53234,2.88157a15.315,15.315,0,0,0-3.19764,3.23945,35.59563,35.59563,0,0,0-2.16822,4.03276,16.83447,16.83447,0,0,1-1.20293,1.89495c-.42442.61382-.88009,1.2085-1.32573,1.81024-.91391,1.19419-1.85775,2.36581-2.94433,3.52952Z"/><path fill="#f9ae2b" d="M364.97327,412.31988c1.47708-1.224,1.47266-3.49485,1.46627-6.77421a19.222,19.222,0,0,0-3.69488-11.54224,20.635,20.635,0,0,0-6.36026-5.40988c-2.91019-1.80774-7.45236-4.62922-12.23188-3.23057a4.75113,4.75113,0,0,0-2.28178,1.09265c-3.171,3.16522.09314,12.65055,5.29654,18.49306C352.48012,410.91406,361.61476,415.10306,364.97327,412.31988Z"/><path fill="#e06714" d="M364.45169,411.08391a31.7812,31.7812,0,0,1-2.70393-3.03057c-.402-.52075-.81018-1.03694-1.18739-1.57209a12.538,12.538,0,0,1-1.05644-1.66331,29.43249,29.43249,0,0,0-1.85344-3.58717,12.16182,12.16182,0,0,0-2.85471-2.80856c-1.11132-.78462-2.16216-1.60385-3.166-2.4688-.99841-.86951-2.06016-1.66563-2.99514-2.59809-.93564-.93317-1.87693-1.86579-2.73953-2.90206a24.81991,24.81991,0,0,1-2.51546-3.2629l.17233-.22464a21.87047,21.87047,0,0,1,3.77321,1.76688,27.55142,27.55142,0,0,1,3.338,2.3801,25.27,25.27,0,0,1,2.84992,2.93919c.441.52324.90649,1.0206,1.297,1.58957.4007.559.761,1.15311,1.12939,1.73428.38028.57043.7164,1.17685,1.125,1.71609.40532.54248.83565,1.061,1.29247,1.5602.92634.98388,2.10853,1.7853,3.06442,2.78719a9.46668,9.46668,0,0,1,1.23591,1.64663,15.59345,15.59345,0,0,1,.97539,1.82346,10.85618,10.85618,0,0,1,1.08194,4.06919Z"/><rect width="110.745" height="30.816" x="285.737" y="426.592" fill="#409cb5" rx="3"/><circle cx="386.851" cy="115.286" r="26.015" fill="#409cb5"/><rect width="2.71" height="24.063" x="385.496" y="99.44" fill="#f9ae2b" rx="1.355"/><path fill="#f9ae2b" d="M386.85122,132.33838c3.26938,0,3.2748-5.081,0-5.081-3.26938,0-3.2748,5.081,0,5.081Z"/><line x1="429.989" x2="462.292" y1="76.332" y2="76.332" fill="none" stroke="#3086a3" stroke-linecap="round" stroke-miterlimit="10" stroke-width="3"/><line x1="429.989" x2="462.292" y1="85.643" y2="85.643" fill="none" stroke="#3086a3" stroke-linecap="round" stroke-miterlimit="10" stroke-width="3"/><line x1="429.989" x2="462.292" y1="94.954" y2="94.954" fill="none" stroke="#3086a3" stroke-linecap="round" stroke-miterlimit="10" stroke-width="3"/><line x1="460.562" x2="492.864" y1="319.766" y2="319.766" fill="none" stroke="#3086a3" stroke-linecap="round" stroke-miterlimit="10" stroke-width="3"/><line x1="460.562" x2="492.864" y1="329.077" y2="329.077" fill="none" stroke="#3086a3" stroke-linecap="round" stroke-miterlimit="10" stroke-width="3"/><line x1="460.562" x2="492.864" y1="338.387" y2="338.387" fill="none" stroke="#3086a3" stroke-linecap="round" stroke-miterlimit="10" stroke-width="3"/><line x1="157.35" x2="189.653" y1="198.923" y2="198.923" fill="none" stroke="#3086a3" stroke-linecap="round" stroke-miterlimit="10" stroke-width="3"/><line x1="157.35" x2="189.653" y1="208.233" y2="208.233" fill="none" stroke="#3086a3" stroke-linecap="round" stroke-miterlimit="10" stroke-width="3"/><line x1="157.35" x2="189.653" y1="217.544" y2="217.544" fill="none" stroke="#3086a3" stroke-linecap="round" stroke-miterlimit="10" stroke-width="3"/><circle cx="227.299" cy="309.243" r="13.807" fill="#b9d4db"/><circle cx="206.212" cy="340.583" r="7.159" fill="#b9d4db"/><circle cx="191.41" cy="295.579" r="10.228" fill="#b9d4db"/><circle cx="495.649" cy="211.248" r="16.428" fill="#b9d4db"/><circle cx="463.166" cy="219.444" r="8.557" fill="#b9d4db"/><circle cx="453.116" cy="191.038" r="4.936" fill="#b9d4db"/><circle cx="477.59" cy="178.395" r="11.833" fill="#b9d4db"/><circle cx="233.076" cy="115.558" r="16.428" fill="#b9d4db"/><circle cx="217.994" cy="85.643" r="8.557" fill="#b9d4db"/><circle cx="270.706" cy="63.396" r="7.406" fill="#b9d4db"/><circle cx="243.525" cy="69.642" r="4.936" fill="#b9d4db"/><circle cx="261.2" cy="90.77" r="11.833" fill="#b9d4db"/></svg>